<svg xmlns="http://www.w3.org/2000/svg" xmlns:xlink="http://www.w3.org/1999/xlink" viewBox="0 0 1261.5 687.79"><defs><style>.cls-1,.cls-12,.cls-19,.cls-20,.cls-22,.cls-29,.cls-32,.cls-4,.cls-5{fill:#fff;}.cls-1,.cls-10,.cls-11,.cls-12,.cls-31,.cls-6,.cls-7,.cls-8,.cls-9{fill-rule:evenodd;}.cls-2{opacity:0.61;}.cls-3{opacity:0.44;}.cls-5{fill-opacity:0.25;}.cls-6{fill:url(#linear-gradient);}.cls-7{fill:url(#linear-gradient-2);}.cls-8{fill:url(#linear-gradient-3);}.cls-9{fill:#cbb6f8;}.cls-10{fill:url(#linear-gradient-4);}.cls-11{fill:url(#linear-gradient-5);}.cls-12{fill-opacity:0.15;}.cls-13{mask:url(#mask);}.cls-14{mask:url(#mask-2);}.cls-15{mask:url(#mask-3);}.cls-16{mask:url(#mask-4);}.cls-17{mask:url(#mask-5);}.cls-18{mask:url(#mask-6);}.cls-19{font-size:24.2px;}.cls-19,.cls-20,.cls-22,.cls-29{font-family:Prototype;}.cls-20{font-size:18.2px;}.cls-21{letter-spacing:-0.04em;}.cls-22{font-size:20.27px;}.cls-23{letter-spacing:-0.02em;}.cls-24{letter-spacing:-0.07em;}.cls-25{letter-spacing:-0.02em;}.cls-26{letter-spacing:-0.02em;}.cls-27{letter-spacing:-0.02em;}.cls-28{letter-spacing:0em;}.cls-29{font-size:22.43px;}.cls-30{letter-spacing:-0.02em;}.cls-31{fill:url(#linear-gradient-6);}.cls-32,.cls-33{stroke:#fff;stroke-miterlimit:10;stroke-width:6px;}.cls-33{fill:none;}</style><linearGradient id="linear-gradient" x1="218.17" y1="925.31" x2="218.17" y2="684.93" gradientTransform="matrix(1, 0, 0, -1, 539.06, 996.61)" gradientUnits="userSpaceOnUse"><stop offset="0" stop-color="#5e3fbe"/><stop offset="1" stop-color="#993a98"/></linearGradient><linearGradient id="linear-gradient-2" x1="146.82" y1="741.47" x2="146.82" y2="329.72" gradientTransform="matrix(1, 0, 0, -1, 539.06, 996.61)" gradientUnits="userSpaceOnUse"><stop offset="0" stop-color="#50bbe7"/><stop offset="1" stop-color="#886bd8"/></linearGradient><linearGradient id="linear-gradient-3" x1="-109.97" y1="792.96" x2="-109.97" y2="379.91" gradientTransform="matrix(1, 0, 0, -1, 539.06, 996.61)" gradientUnits="userSpaceOnUse"><stop offset="0" stop-color="#886bd8"/><stop offset="1" stop-color="#2e0096"/></linearGradient><linearGradient id="linear-gradient-4" x1="-62.92" y1="881.42" x2="-62.92" y2="730.22" gradientTransform="matrix(1, 0, 0, -1, 539.06, 996.61)" gradientUnits="userSpaceOnUse"><stop offset="0" stop-color="#50bbe7"/><stop offset="1" stop-color="#5e3fbe"/></linearGradient><linearGradient id="linear-gradient-5" x1="2.81" y1="925.31" x2="2.81" y2="753.82" gradientTransform="matrix(1, 0, 0, -1, 539.06, 996.61)" gradientUnits="userSpaceOnUse"><stop offset="0" stop-color="#886bd8"/><stop offset="1" stop-color="red"/></linearGradient><mask id="mask" x="621.49" y="93.99" width="255.49" height="224.68" maskUnits="userSpaceOnUse"><g id="path-21-inside-1_0_1" data-name="path-21-inside-1 0 1"><path class="cls-1" d="M626.49,230.2h.08a133,133,0,0,1,122.82,81.94L870.44,262a264.05,264.05,0,0,0-244-163Z"/></g></mask><mask id="mask-2" x="491.59" y="282.02" width="393.1" height="355.89" maskUnits="userSpaceOnUse"><g id="path-23-inside-2_0_1" data-name="path-23-inside-2 0 1"><path class="cls-1" d="M630.26,509.72a125.69,125.69,0,0,0,116-173.8l114.35-47.37c52.72,127.28-7.72,273.2-135,325.92a249.42,249.42,0,0,1-234-23.05L560.36,488.5A125.08,125.08,0,0,0,630.26,509.72Z"/></g></mask><mask id="mask-3" x="342.17" y="215.5" width="206.9" height="389.34" maskUnits="userSpaceOnUse"><g id="path-25-inside-3_0_1" data-name="path-25-inside-3 0 1"><path class="cls-1" d="M504.66,297.17a136.34,136.34,0,0,0,37.47,189L467.5,597.91c-124.31-83.06-157.74-251.17-74.68-375.48Z"/></g></mask><mask id="mask-4" x="372.72" y="158.6" width="139.77" height="127.04" maskUnits="userSpaceOnUse"><g id="path-27-inside-4_0_1" data-name="path-27-inside-4 0 1"><path class="cls-1" d="M488.87,278.7a133.87,133.87,0,0,1,16.55-20.13l-92.89-92.9a264.2,264.2,0,0,0-32.88,40.06Z"/></g></mask><mask id="mask-5" x="410.08" y="116.73" width="132.98" height="148.4" maskUnits="userSpaceOnUse"><g id="path-29-inside-5_0_1" data-name="path-29-inside-5 0 1"><path class="cls-1" d="M513,258a134.47,134.47,0,0,1,23.29-19.66L466,123.61a264.44,264.44,0,0,0-48.84,38.51Z"/></g></mask><mask id="mask-6" x="477.97" y="90.04" width="145.94" height="159.7" maskUnits="userSpaceOnUse"><g id="path-31-inside-6_0_1" data-name="path-31-inside-6 0 1"><path class="cls-1" d="M552.22,242.79a128.59,128.59,0,0,1,66.68-20.24V95a256.49,256.49,0,0,0-134,37.81Z"/></g></mask><linearGradient id="linear-gradient-6" x1="518.01" y1="535.89" x2="616.83" y2="676.58" gradientUnits="userSpaceOnUse"><stop offset="0" stop-color="#c9ff7e"/><stop offset="1" stop-color="#00b300"/></linearGradient></defs><g id="Layer_2" data-name="Layer 2"><g id="Layer_2-2" data-name="Layer 2" class="cls-2"><g class="cls-3"><path class="cls-4" d="M530.78,626.29a5.33,5.33,0,1,0,5.33-5.33A5.33,5.33,0,0,0,530.78,626.29Z"/><polygon class="cls-4" points="385.71 682.46 385.71 683.46 385.89 683.46 386.06 683.39 385.71 682.46"/><circle class="cls-4" cx="113" cy="682.46" r="5.33"/><rect class="cls-4" x="377.09" y="653.77" width="158.42" height="1.97" transform="translate(-200.23 201.01) rotate(-20.48)"/><rect class="cls-4" x="113" y="681.48" width="269.09" height="1.97"/></g><circle class="cls-4" cx="505.11" cy="610.29" r="8"/><polygon class="cls-4" points="354.71 666.46 354.71 667.96 354.98 667.96 355.23 667.86 354.71 666.46"/></g><g id="Layer_3" data-name="Layer 3"><circle class="cls-4" cx="82" cy="666.46" r="8"/><rect class="cls-4" x="349.63" y="636.87" width="160.55" height="3" transform="translate(-196.17 190.74) rotate(-20.48)"/><rect class="cls-4" x="82" y="664.96" width="272.71" height="3"/></g><g id="Layer_1-2" data-name="Layer 1"><path class="cls-5" d="M756.27,213.5a5.34,5.34,0,1,0,5.33-5.34A5.33,5.33,0,0,0,756.27,213.5Zm152.57-62.89v-1h-.2l-.19.08Zm330.33,0a5.33,5.33,0,1,0,5.33-5.34A5.33,5.33,0,0,0,1239.17,150.61ZM826.72,499.88a5.34,5.34,0,1,0,5.33-5.34A5.33,5.33,0,0,0,826.72,499.88Zm128.82,90.58-.59.8.27.2h.32Zm294.13,0a5.33,5.33,0,1,0,5.33-5.34A5.33,5.33,0,0,0,1249.67,590.46ZM425.78,534.29a5.33,5.33,0,1,0,5.33-5.33A5.33,5.33,0,0,0,425.78,534.29ZM280.71,590.46v1h.18l.17-.07Zm-278,0A5.33,5.33,0,1,0,8,585.12,5.33,5.33,0,0,0,2.67,590.46ZM306.43,204l.1-1-.87-.08-.2.85ZM280.71,315.15v1h.79l.18-.77Zm-278,0A5.33,5.33,0,1,0,8,309.82,5.33,5.33,0,0,0,2.67,315.15ZM452.3,180.67a5.33,5.33,0,1,0,5.33-5.34A5.33,5.33,0,0,0,452.3,180.67ZM324.64,113l.45-.89-.21-.11h-.24Zm-322,0A5.33,5.33,0,1,0,8,107.7,5.33,5.33,0,0,0,2.67,113ZM565.1,164.85a5.34,5.34,0,1,0,5.33-5.34A5.33,5.33,0,0,0,565.1,164.85ZM507.89,39.46l.9-.45-.28-.55h-.62Zm-232.52,0a5.34,5.34,0,1,0,5.34-5.34A5.34,5.34,0,0,0,275.37,39.46Zm124.68,174a5.34,5.34,0,1,0,5.33-5.34A5.33,5.33,0,0,0,400.05,213.5Zm361.94.92,147.24-62.89-.78-1.84L761.21,212.58Zm146.85-62.81H1244.5v-2H908.84ZM831.46,500.68,955,591.26l1.19-1.61L832.65,499.07Zm124.08,90.78H1255v-2H955.54ZM425.16,534.12,276.75,589.55l.69,1.84L425.85,536ZM277.09,589.48H8v2H277.09Zm28.37-385.7L279.73,314.93l1.95.45,25.73-111.15ZM280.71,314.15H8v2H280.71ZM458.08,179.78l-133-67.64-.9,1.78,133,67.64ZM324.64,112H8v2H324.64ZM571.33,164.4,508.79,39,507,39.9l62.54,125.39ZM507.89,38.46H280.71v2H507.89ZM306.34,205l99,9.49.19-2-99-9.49Z"/><path class="cls-4" d="M753.6,198.5a8,8,0,1,0,8-8A8,8,0,0,0,753.6,198.5Zm155.24-62.89v-1.5h-.31l-.28.12Zm327.66,0a8,8,0,1,0,8-8A8,8,0,0,0,1236.5,135.61ZM824.05,484.88a8,8,0,1,0,8-8A8,8,0,0,0,824.05,484.88Zm131.49,90.58-.88,1.21.39.29h.49Zm290,0a8,8,0,1,0,8-8A8,8,0,0,0,1245.5,575.46ZM423.11,519.29a8,8,0,1,0,8-8A8,8,0,0,0,423.11,519.29Zm-142.4,56.17V577H281l.25-.1ZM0,575.46a8,8,0,1,0,8-8A8,8,0,0,0,0,575.46ZM306.43,189l.15-1.49-1.31-.12-.3,1.28ZM280.71,300.15v1.5h1.19l.27-1.16ZM0,300.15a8,8,0,1,0,8-8A8,8,0,0,0,0,300.15ZM449.63,165.67a8,8,0,1,0,8-8A8,8,0,0,0,449.63,165.67ZM324.64,98l.68-1.34-.32-.16h-.36ZM0,98a8,8,0,1,0,8-8A8,8,0,0,0,0,98Zm562.43,51.82a8,8,0,1,0,8-8A8,8,0,0,0,562.43,149.85ZM507.89,24.46l1.35-.67-.42-.83h-.93Zm-235.18,0a8,8,0,1,0,8-8A8,8,0,0,0,272.71,24.46Zm124.67,174a8,8,0,1,0,8-8A8,8,0,0,0,397.38,198.5Zm364.81,1.38L909.43,137l-1.18-2.76L761,197.12Zm146.65-62.77H1244.5v-3H908.84Zm-77.67,349,123.49,90.58,1.77-2.42L832.94,483.67ZM955.54,577h298v-3h-298Zm-525-59.08-150.4,56.17,1.05,2.81,150.41-56.17ZM280.71,574H8v3H280.71ZM305,188.67,279.24,299.82l2.93.67,25.72-111.15Zm-24.26,110H8v3H280.71Zm177.6-134.32-133-67.64L324,99.37,457,167ZM324.64,96.53H8v3H324.64Zm247.13,52.65L509.24,23.79l-2.69,1.34,62.54,125.39ZM507.89,23H280.71v3H507.89ZM306.29,190.5,405.24,200l.29-3-98.95-9.49Z"/><path class="cls-6" d="M619.67,219.27h.09a150,150,0,0,1,138.51,92.4l136.52-56.54A297.78,297.78,0,0,0,619.67,71.3Z"/><path class="cls-7" d="M619.76,519.16A150,150,0,0,0,758.27,311.68l136.52-56.55c62.93,152-9.22,326.14-161.16,389.08a297.79,297.79,0,0,1-279.41-27.52l82.1-122.87A149.31,149.31,0,0,0,619.76,519.16Z"/><path class="cls-8" d="M495.1,285.86a150,150,0,0,0,41.22,208l-82.1,122.87c-136.74-91.37-173.53-276.3-82.16-413Z"/><path class="cls-9" d="M495.1,285.86a150,150,0,0,1,18.65-22.69L409.1,158.52a297.41,297.41,0,0,0-37,45.13Z"/><path class="cls-10" d="M517,266.38a150.44,150.44,0,0,1,26.21-22.12l-79.1-129.08a297.81,297.81,0,0,0-55,43.34Z"/><path class="cls-11" d="M542.27,242.79a149.13,149.13,0,0,1,77.4-23.49V71.3a297.86,297.86,0,0,0-155.6,43.88Z"/><path class="cls-12" d="M619.67,253h.07a115.77,115.77,0,0,1,106.93,71.34l105.4-43.66A229.9,229.9,0,0,0,619.67,138.8Z"/><path class="cls-12" d="M619.74,484.55A115.82,115.82,0,0,0,726.68,324.37l105.39-43.65C880.66,398,825,532.5,707.65,581.09A229.9,229.9,0,0,1,492,559.84L555.33,465A115.24,115.24,0,0,0,619.74,484.55Z"/><path class="cls-12" d="M523.51,304.44A115.78,115.78,0,0,0,555.33,465L492,559.84C386.38,489.31,358,346.54,428.52,241Z"/><path class="cls-12" d="M523.51,304.44a115.85,115.85,0,0,1,14.39-17.52l-80.79-80.79A230.16,230.16,0,0,0,428.52,241Z"/><path class="cls-12" d="M540.38,289.4a116.1,116.1,0,0,1,20.24-17.07l-61.07-99.65a229.76,229.76,0,0,0-42.44,33.45Z"/><path class="cls-12" d="M559.92,271.19a115.1,115.1,0,0,1,59.75-18.13V138.8a229.91,229.91,0,0,0-120.12,33.87Z"/><g class="cls-13"><path class="cls-4" d="M621.49,230.2v5h5v-5Zm127.9,81.94-4.61,1.92,1.91,4.61,4.62-1.91Zm125.67-52.05L870.44,262l1.92,4.62L877,264.7ZM621.49,94v5h5V94Zm5,131.21v10h.08v-10ZM752,305.64a138,138,0,0,0-120.52-80.35q-2.44-.09-4.92-.09v10a128,128,0,0,1,118.21,78.86l4.61-1.92h0l4.61-1.92Q753.05,307.91,752,305.64ZM870.44,262l-1.91-4.62-4.67,1.93L752,305.64l-4.53,1.88,1.91,4.62h0l1.91,4.62,121.05-50.14Zm-244-168v10c1.67,0,3.34,0,5,.05A259,259,0,0,1,863.86,259.31c.67,1.52,1.32,3.06,2,4.6l4.62-1.91,4.62-1.91A269.05,269.05,0,0,0,626.49,94Zm-5,5V230.2h10V99Z"/></g><g class="cls-14"><path class="cls-4" d="M744.37,331.3l-4.62,1.91,1.92,4.63,4.62-1.92Zm119-49.28-4.62,1.91,1.91,4.62,4.62-1.91ZM750.87,384.11a120.57,120.57,0,0,1-112.6,120.34l-.33.1.66,9.9A130.56,130.56,0,0,0,760.87,384.11Zm1.85-45.44q-.86-2.35-1.82-4.67l-4.61,1.92-4.62,1.92a120.26,120.26,0,0,1,9.2,46.27h10A130,130,0,0,0,752.72,338.67Zm107.92-50.12-1.91-4.62L744.37,331.3l1.92,4.62,1.91,4.62,4.52-1.87,105.17-43.56,4.67-1.94Zm4.62-1.91-4.62,1.91L856,290.46q1,2.32,1.87,4.65c41.9,107.2,2.87,226.8-88.57,289.95a244.92,244.92,0,0,1-45.59,24.79l3.28,7.93.54,1.31C857.39,565.31,919,416.47,865.26,286.64ZM727,617.78l-3.28-7.93a244,244,0,0,1-77.57,18.08l.66,10a254.15,254.15,0,0,0,80.73-18.82Z"/></g><g class="cls-15"><path class="cls-4" d="M507.44,293l-2.78,4.15,4.16,2.79,2.78-4.16Zm37.48,189.05-2.78,4.15,4.15,2.78,2.78-4.15ZM467.51,597.91h0l-2.77,4.15,4.15,2.78,2.78-4.16ZM391.44,215.5l-1.91,2.85-.87,1.3,4.16,2.78.87-1.31,1.91-2.85Zm113.22,81.66-4.15-2.78q-1.39,2.08-2.71,4.21a140.67,140.67,0,0,0-21.12,74.35h10a130.62,130.62,0,0,1,22.14-73Zm-18,75.78h-10A141.06,141.06,0,0,0,535.26,487.5c1.34,1,2.71,1.93,4.09,2.86l2.79-4.15,2.78-4.15A131.17,131.17,0,0,1,486.68,372.94Zm55.46,113.27L538,483.43l-2.72,4.07-69.1,103.43-2.81,4.2,4.15,2.78h0l4.15,2.77L546.29,489Zm-76,104.72C348.9,509.43,317.1,349.57,394.24,229.39q1.33-2.1,2.73-4.18l-4.15-2.78-4.16-2.78c-84.59,126.61-50.54,297.82,76.07,382.41l2.77-4.15h0l2.77-4.16C468.89,592.82,467.52,591.89,466.16,590.93Zm26-308.14L488,280,395.6,218.27l-1.91,2.85-.87,1.31L390,226.59l4.2,2.8,103.56,69.2,4.08,2.73,2.78-4.16,2.78-4.15Z"/></g><g class="cls-16"><path class="cls-4" d="M488.87,278.7h0L488,280l-1.9,2.85,4.15,2.78,1.91-2.85.87-1.3Zm23.57-20.19L509,255l-3,3-.55.56L509,262.1l.56-.55,3-3Zm-99.38-99.38-.53-.53L409,162.14l3.54,3.53.55-.55,3-3ZM375.5,203l-2.78,4.16,4.16,2.78,2.78-4.16ZM506,258l3-3-92.37-92.36-3,3-.53-.53-.55.55h0l3.53,3.53c-1.18,1.18-2.35,2.37-3.49,3.58l85.86,85.85a134.05,134.05,0,0,0-10.85,13.19c-1,1.34-1.94,2.71-2.86,4.09l4.15,2.78h0l4.15,2.78A129.07,129.07,0,0,1,509,262.1l-3.53-3.53Zm-89.39-95.34-.53-.53-3,3-.55.55h0L409,169.21l3.58,3.58,85.86,85.85,3.46,3.46,3.53-3.53h0L506,258l3-3Zm-7.6-.53A269.18,269.18,0,0,0,375.5,203l4.16,2.78,4.15,2.78c.93-1.39,1.86-2.76,2.82-4.13a257.32,257.32,0,0,1,25.94-31.59c1.14-1.21,2.31-2.4,3.49-3.58Zm78.59,109.69L386.63,204.38l-4.2-2.81-2.77,4.16-2.78,4.16,12.65,8.46,4.16,2.77,92.4,61.74L488,280l.88-1.3h0l2.78-4.15Z"/></g><g class="cls-17"><path class="cls-4" d="M513,258l-.55.55-3,3,3.64,3.64,3.53-3.74Zm27.56-22.27-4.27,2.61,2.77,4.17,4-2.67ZM470.26,121l-2.61-4.26-4.27,2.61L466,123.6h0Zm-56.65,37.59-.55.55-3,3,3,3,.53.53,3-3,.56-.55h0ZM536.28,238.3l-2.77-4.16q-2,1.34-4,2.74a138.42,138.42,0,0,0-16.59,14q-1.85,1.8-3.61,3.68L513,258l3.64,3.43a128.88,128.88,0,0,1,22.42-18.92ZM470.26,121,466,123.6h0l-4.27,2.61,2.64,4.31,65.18,106.35,2.47,4,4.26-2.61,4.27-2.61ZM466,123.61h0l-2.62-4.26a269.94,269.94,0,0,0-49.77,39.24l7.07,7.07c1.18-1.18,2.38-2.35,3.58-3.49a258.21,258.21,0,0,1,40.11-31.63c1.4-.9,2.82-1.79,4.24-2.66Zm47,127.24-88.7-88.69-3.58-3.58-3.53,3.53h0l-.56.55-3,3L506,258l3.48,3.48,3-3L513,258l3.54-3.54Z"/></g><g class="cls-18"><path class="cls-4" d="M552.22,242.79,548,245.4l2.66,4.34,4.3-2.74Zm66.69-20.24.1,5,2.48-.05,2.42-.05v-4.9Zm0-132.51v5h5V90ZM482.24,128.58,478,131.19l2.62,4.27,4.26-2.62Zm136.67,94-.11-5c-1.64,0-3.27.1-4.89.19a133.49,133.49,0,0,0-60,18.17q-2.21,1.29-4.35,2.66l2.69,4.22h0l2.69,4.21A123.44,123.44,0,0,1,619,227.55ZM613.91,95V222.55h10V95ZM482.24,128.58l2.61,4.26h0l2.61,4.26q2.13-1.31,4.29-2.57A251.47,251.47,0,0,1,613.91,100.1c1.67,0,3.33-.06,5-.06V90A261.61,261.61,0,0,0,482.24,128.58Zm71.64,107.33L491.75,134.54l-2.64-4.31-4.26,2.61h0l-4.26,2.61L548,245.4l4.26-2.61h0l4.26-2.62Z"/></g><text class="cls-19" transform="translate(1006.76 560.9) scale(1.34 1)">Presale 30%</text><text class="cls-20" transform="translate(909.76 120.75) scale(1.34 1)">Reser<tspan class="cls-21" x="47.49" y="0">v</tspan><tspan x="56.93" y="0">ed/Eco-System 23%</tspan></text><text class="cls-22" transform="translate(142.76 655.11) scale(1.34 1)">Seed 8%</text><text class="cls-20" transform="translate(23.76 86.86) scale(1.34 1)"><tspan class="cls-23">A</tspan><tspan x="12.65" y="0">dvisor/Partnerships 5%</tspan></text><text class="cls-20" transform="translate(297.76 15.63) scale(1.34 1)"><tspan class="cls-24">T</tspan><tspan x="8.72" y="0">eam/Founders </tspan><tspan class="cls-25" x="134.02" y="0">1</tspan><tspan x="138.24" y="0">2%</tspan></text><text class="cls-20" transform="translate(23.76 289.02) scale(1.34 1)">R<tspan class="cls-26" x="11.58" y="0">e</tspan><tspan class="cls-27" x="21.4" y="0">w</tspan><tspan class="cls-28" x="35.04" y="0">ards/Airdrop 2%</tspan></text><text class="cls-29" transform="translate(51.76 562.37) scale(1.2 1)">C<tspan class="cls-30" x="12.72" y="0">e</tspan><tspan x="24.78" y="0">x 20%</tspan></text><path class="cls-31" d="M536.32,493.82l-81.68,123.3s68.69,52.5,166.85,49.75c4.3-48.5,5.08-147.87,5.08-147.87S568,522.52,536.32,493.82Z"/><line class="cls-32" x1="641.64" y1="511.12" x2="648.64" y2="633.12"/><path class="cls-4" d="M819.25,656.28a1.5,1.5,0,0,0,0-3,1.5,1.5,0,0,0,0,3Z"/><path class="cls-33" d="M542.64,506.12l-70,108s52,36,152,32c2-43,1-122,1-122S575.64,520.12,542.64,506.12Z"/></g></g></svg>